<?xml version="1.0" encoding="utf-8"?>
<!-- Generator: Adobe Illustrator 16.2.0, SVG Export Plug-In . SVG Version: 6.00 Build 0)  -->
<!DOCTYPE svg PUBLIC "-//W3C//DTD SVG 1.1//EN" "http://www.w3.org/Graphics/SVG/1.1/DTD/svg11.dtd">
<svg version="1.1" id="Layer_1" xmlns="http://www.w3.org/2000/svg" xmlns:xlink="http://www.w3.org/1999/xlink" x="0px" y="0px"
	 width="208px" height="208px" viewBox="0 0 208 208" enable-background="new 0 0 208 208" xml:space="preserve">
<g>
	<path fill="#E7EE25" d="M199.3,62.4c1.4,5.9,2.2,11.9,2.2,18.2c0,43.1-34.9,78-78,78c-14,0-27.2-3.7-38.5-10.2l0.2,0.2
		c0,0-3.3-2.6-9.6-3.2c-10.2-1-25.6,8.6-25.6,8.6s9.6-15.4,8.7-25.6c-0.4-4.3-1.7-7.2-2.5-8.6c0,0,0-0.1-0.1-0.1
		c-0.4-0.6-0.6-0.9-0.6-0.9l0.2,0.2c-6.6-11.3-10.3-24.5-10.3-38.5c0-43.1,34.9-78,78-78c1.4,0,2.8,0,4.2,0.1
		C120.1,0.9,112.2,0,104,0C46.6,0,0,46.6,0,104c0,57.4,46.6,104,104,104c57.4,0,104-46.6,104-104C208,89.2,204.9,75.1,199.3,62.4z"
		/>
	<path fill="#E7EE25" d="M90.4,67.6c7.2,0,13,5.8,13,13c0,7.2-5.8,13-13,13c-7.2,0-13-5.8-13-13C77.3,73.4,83.2,67.6,90.4,67.6z"/>
	<path fill="#E7EE25" d="M126.8,67.6c7.2,0,13,5.8,13,13c0,7.2-5.8,13-13,13c-7.3,0-13-5.8-13-13C113.8,73.4,119.5,67.6,126.8,67.6z
		"/>
	<path fill="#E7EE25" d="M163.1,67.6c7.2,0,13,5.8,13,13c0,7.2-5.8,13-13,13c-7.3,0-13-5.8-13-13C150.2,73.4,156,67.6,163.1,67.6z"
		/>
</g>
</svg>
