<?xml version="1.0" encoding="utf-8"?>
<!-- Generator: Adobe Illustrator 16.2.0, SVG Export Plug-In . SVG Version: 6.00 Build 0)  -->
<!DOCTYPE svg PUBLIC "-//W3C//DTD SVG 1.1//EN" "http://www.w3.org/Graphics/SVG/1.1/DTD/svg11.dtd">
<svg version="1.1" id="Layer_1" xmlns="http://www.w3.org/2000/svg" xmlns:xlink="http://www.w3.org/1999/xlink" x="0px" y="0px"
	 width="359px" height="145px" viewBox="0 0 359 145" enable-background="new 0 0 359 145" xml:space="preserve">
<g>
	<path fill="#FFFFFF" d="M51.4,0c4.9,13.5,19.3,84.2,23,98.6c7.9-19.9,26.6-78.8,35.8-98.6l5.4,0.7c-4.6,16.6-10,51.7-10,77.4
		c0,16.6,2.3,25.5,7.3,25.5c4.4,0,8-7.2,14.9-21l0.7-1.4l2.7,2.1l-0.7,1.4c-8.8,17.6-13.4,26.4-21,26.4c-10.5,0-13.9-10.7-13.9-28
		c0-18.9,4.4-43.1,6.5-54l-29.8,85.3l-5.4-1.3c0-7.5-19.6-88-19.6-88s1,16.5,1,27.4c0,48-17.4,61.9-31.4,61.9
		C7.7,114.3,0,107.7,0,98.9c0-10.5,7.4-19,16.9-25.1l2,2.1C12.1,80.5,7.4,88,7.4,95.5c0,6.8,4.6,12.5,11.7,12.5
		c11.1,0,25.4-12.9,25.4-58.1c0-13.1-2.1-41.3-4-47.2L51.4,0z"/>
	<path fill="#FFFFFF" d="M139.6,111.1c-5,0-11.8-3.5-11.8-19c0-14.9,2.6-31.2,3.2-32.9c0.7-1.7,4.8-2.3,6.9-2.3
		c1.4,0,2.3,0.7,2.3,2.3c0,2.4-3,20.1-3,30.2c0,9.5,1.9,14.2,6.7,14.2c4,0,8.5-6.1,11.6-17.4c0.9-9.6,1.6-22.8,2.1-26.2
		c0.5-2.5,5.3-3.2,6.7-3.2c1.5,0,2,0.7,2,2.1c0,3.8-2.1,29.8-2.1,35.9c0,6,0.4,9.7,2.7,9.7c3.4,0,7.8-9.1,14.2-21.9l0.7-1.4l2.7,2.1
		l-0.7,1.4c-8.4,16.8-12.2,26.4-19.6,26.4c-6.8,0-8.8-5.4-8.8-14.4C154.1,98.9,149.3,111.1,139.6,111.1z"/>
	<path fill="#FFFFFF" d="M183.4,60.9h-6l0.7-4h5.8c1.2-8.9,2.6-18.1,3.6-27.2h6.7c-0.4,3.8-1.3,15.2-2,27.2h12.8l-0.7,4h-12.4
		C191.3,70.9,191,80.7,191,86c0,13.4,1.7,17.6,5,17.6c4.5,0,11-9.6,16.6-21l0.7-1.4l2.7,2.1l-0.7,1.4c-8.1,16.5-16.1,26.4-23,26.4
		c-6.8,0-10.8-6.1-10.8-21.7C181.5,80,182.3,70.5,183.4,60.9z"/>
	<path fill="#FFFFFF" d="M216.6,81.9l-0.7,1.3l-0.7,1.4l-2.7-2.1l0.7-1.4c4.5-8.9,5.4-18.9,6.6-21.7c1-2.1,4.5-2.7,5.4-2.7
		c1.9,0,2.4,0.7,2.4,2.7c0,2-1.9,16.3-1.9,31.7c0,11.1,2.3,12.1,4.4,12.1c2.8,0,6.7-4.3,15-20.7l0.7-1.4l2.7,2.1l-0.7,1.4
		c-6.6,13.1-13.3,26.4-20.3,26.4c-7.1,0-10.4-5.3-10.4-21.6c0-2.3,0-4.8,0.1-7.6H216.6z M224.7,48.7c-3,0-5.4-2.3-5.4-5.4
		c0-3,2.4-5.4,5.4-5.4c3.1,0,5.4,2.5,5.4,5.4C230.2,46.4,227.8,48.7,224.7,48.7z"/>
	<path fill="#FFFFFF" d="M274.1,81.2l2.7,2.1l-0.7,1.4c-3.2,6.5-8.9,10.7-15.2,10.7c-1.8,0-3.9-0.4-5.8-1.2v50.2l-6.7,0.7
		c0,0-2.7-37.6-2.7-80.7c0-33.9,8-52.2,16.9-52.2c3.4,0,6.1,2.1,6.1,8.1c0,15.2-7.9,37.8-13.5,52.3v14.8c1.5,2.1,4.8,3.1,6.9,3.1
		c4.6,0,8.5-2.2,11.4-7.9L274.1,81.2z M255.2,64c4.4-12.6,8.1-27.6,8.1-40.4c0-4-0.7-6.8-2.8-6.8c-3.9,0-5.3,17-5.3,37.3V64z"/>
	<path fill="#FFFFFF" d="M285.3,111.1c-5,0-11.8-3.5-11.8-19c0-14.9,2.6-31.2,3.2-32.9c0.7-1.7,4.8-2.3,6.9-2.3
		c1.4,0,2.3,0.7,2.3,2.3c0,2.4-3,20.1-3,30.2c0,9.5,1.9,14.2,6.7,14.2c4,0,8.5-6.1,11.6-17.4c0.9-9.6,1.6-22.8,2.1-26.2
		c0.5-2.5,5.3-3.2,6.7-3.2c1.5,0,2,0.7,2,2.1c0,3.8-2.1,29.8-2.1,35.9c0,6,0.4,9.7,2.7,9.7c3.4,0,7.8-9.1,14.2-21.9l0.7-1.4l2.7,2.1
		l-0.7,1.4c-8.4,16.8-12.2,26.4-19.6,26.4c-6.8,0-8.8-5.4-8.8-14.4C299.8,98.9,295,111.1,285.3,111.1z"/>
	<path fill="#FFFFFF" d="M355.6,82.6l0.7-1.4l2.7,2.1l-0.7,1.4c-9.3,18.7-14.2,26.4-20.3,26.4c-7.9,0-11.5-9.6-11.5-39.3
		c0-42.1,7.7-59.7,16.5-59.7c2.6,0,4.7,1.8,4.7,7.5c0,13.1-6.6,39.1-11.9,56.3c1.1,21.7,2.6,26.8,5.8,26.8S350.1,93.9,355.6,82.6z
		 M342.1,18.1c-3,0-5.9,26.4-6.2,46.7c4.2-15.5,7.6-33.5,7.6-43.7C343.5,19.3,343.1,18.1,342.1,18.1z"/>
</g>
</svg>
